<svg width="39" height="43" viewBox="0 0 39 43" fill="none" xmlns="http://www.w3.org/2000/svg">
<path fill-rule="evenodd" clip-rule="evenodd" d="M29.0311 21.3055H34.5849V20.2092C34.2673 19.0097 33.7622 18.1963 33.1064 17.7011C32.4531 17.2075 31.6032 16.996 30.6068 17.0035L7.27835 17.0086C6.71804 17.0086 6.26386 16.5452 6.26386 15.9728C6.26386 15.4011 6.71804 14.9378 7.27835 14.9378L10.5284 14.9386C10.182 14.388 9.88987 13.7995 9.65703 13.1801C9.52785 12.83 9.41595 12.4758 9.3238 12.1123H5.49044C4.54013 12.1123 3.67456 12.5102 3.04677 13.1507C2.41981 13.7903 2.02981 14.6734 2.02981 15.6437V37.3976C2.02981 38.3663 2.42063 39.2493 3.04842 39.889C3.67373 40.5319 4.54013 40.929 5.49044 40.929H31.1235C32.073 40.929 32.9385 40.5303 33.5672 39.8906C34.1941 39.2493 34.5849 38.3655 34.5849 37.3976V34.2944H29.0311C27.3156 34.2944 25.7565 33.5784 24.6292 32.4275L24.5231 32.31C23.4568 31.1651 22.7994 29.6231 22.7994 27.9367V27.6631C22.7994 25.9213 23.5004 24.3332 24.6292 23.179L24.6399 23.1681C25.7713 22.019 27.3255 21.3055 29.0311 21.3055ZM36.6147 21.3642C37.1997 21.4834 37.7239 21.7789 38.1303 22.1936C38.666 22.74 39 23.4971 39 24.3307V31.1399C39 32.002 38.652 32.7901 38.0892 33.3651C37.6851 33.7823 37.1742 34.0752 36.6147 34.2104V37.3976C36.6147 38.9329 35.9944 40.333 34.9996 41.3478L34.9955 41.352C34.0008 42.3669 32.6284 42.9998 31.1235 42.9998H5.49044C3.98639 42.9998 2.61234 42.3677 1.61513 41.3512C0.618734 40.3389 0 38.9388 0 37.3976V15.6437C0 14.1017 0.617911 12.7008 1.61184 11.6859C2.60576 10.6719 3.97899 10.0415 5.49044 10.0415H9.035C9.03089 9.93075 9.02924 9.8191 9.02924 9.70662C9.02924 7.02894 10.0956 4.60055 11.8267 2.83109C15.5334 -0.939499 21.5923 -0.947893 25.2973 2.83109L25.3887 2.93266C27.0597 4.68701 28.0891 7.07678 28.0891 9.70662C28.0891 9.8191 28.0866 9.93075 28.0833 10.0415H31.1235C32.63 10.0415 34.0024 10.6736 34.998 11.6893C35.9952 12.7024 36.6147 14.1051 36.6147 15.6437V21.3642ZM26.5891 14.9403H30.5796C32.0121 14.9269 33.2742 15.2593 34.3118 16.0441C34.4047 16.1146 34.4961 16.1885 34.5849 16.2657V15.6437C34.5849 14.6767 34.1941 13.7928 33.5655 13.1515C32.941 12.5094 32.0763 12.1123 31.1235 12.1123H27.7937C27.7032 12.4766 27.5913 12.8334 27.4613 13.1801C27.2292 13.8012 26.9363 14.3888 26.5891 14.9403ZM17.0061 5.43072C17.0028 5.02696 16.9658 4.73737 17.4578 4.74493L19.4704 4.76423C19.983 4.76171 20.1196 4.92792 20.1138 5.41813V7.36218H22.007C22.4028 7.35966 22.6858 7.32189 22.6784 7.82301L22.6595 9.87618C22.662 10.4 22.4999 10.5393 22.0185 10.5334H20.1138V12.4758C20.1196 12.9669 19.983 13.1331 19.4704 13.1297L17.4578 13.149C16.9658 13.1566 17.0028 12.8678 17.0061 12.4641V10.5334H15.1006C14.6192 10.5393 14.4563 10.3991 14.4596 9.87618L14.4407 7.82301C14.4325 7.32189 14.7163 7.35966 15.1121 7.36218H17.0061V5.43072ZM18.5596 1.63243C22.9302 1.63243 26.4731 5.24689 26.4731 9.70662C26.4731 11.7799 25.7063 13.6711 24.4466 15.1006H12.6709C11.4112 13.6711 10.6452 11.7799 10.6452 9.70662C10.6452 5.24689 14.1881 1.63243 18.5596 1.63243ZM29.5454 25.2036C30.2143 25.2036 30.8215 25.4815 31.2609 25.9306C31.7035 26.3822 31.9759 27.0016 31.9759 27.6841C31.9759 28.3657 31.7035 28.9851 31.2642 29.4342C30.8215 29.8858 30.2143 30.1637 29.5454 30.1637C28.8773 30.1637 28.2709 29.8858 27.8299 29.4376L27.8249 29.4325C27.3856 28.9826 27.1149 28.364 27.1149 27.6841C27.1149 27.0025 27.3872 26.383 27.8266 25.9339L27.8315 25.9289C28.2717 25.4815 28.8781 25.2036 29.5454 25.2036Z" fill="white"/>
</svg>
