<svg width="21" height="19" viewBox="0 0 21 19" fill="none" xmlns="http://www.w3.org/2000/svg">
<path fill-rule="evenodd" clip-rule="evenodd" d="M0.477834 9.78027L6.34055 5.41895V9.07104H14.6594V5.40698L20.5733 9.78027H0.477834ZM13.233 -1V8.25757H7.767V-1H13.233ZM12.1063 3.63135C12.1063 4.49268 11.3869 5.18994 10.4982 5.18994C9.60957 5.18994 8.89018 4.49268 8.89018 3.63135C8.89018 2.77002 9.60957 2.07275 10.4982 2.07275C11.3887 2.07104 12.1063 2.76831 12.1063 3.63135ZM12.4008 0.702148V6.54517C11.9564 6.54517 11.5932 6.89722 11.5932 7.32788H9.43325C9.43325 6.89722 9.07002 6.54517 8.62569 6.54517V0.702148C9.07002 0.702148 9.43325 0.350098 9.43325 -0.0805664H11.5932C11.5932 0.351807 11.9564 0.702148 12.4008 0.702148ZM0 18.9011H1.55164L1.77733 18.2825H2.43501V12.2822H1.09144V10.845H19.9086V12.2822H18.565V18.2825H19.2227L19.4484 18.9011H21V20H0V18.9011ZM6.98589 18.2842V12.2822H4.91058V18.2825H5.56826H6.98589V18.2842ZM11.5368 18.2842V12.2822H9.46322V18.2825C10.1544 18.2842 10.8456 18.2842 11.5368 18.2842ZM16.0877 18.2842V12.2822H14.0141V18.2825C14.7053 18.2842 15.3965 18.2842 16.0877 18.2842Z" fill="white"/>
</svg>
