<svg width="19" height="17" viewBox="0 0 19 17" fill="none" xmlns="http://www.w3.org/2000/svg">
<path fill-rule="evenodd" clip-rule="evenodd" d="M9.97022 0.0644531H12.8184C13.1044 0.0644531 13.3379 0.322573 13.3379 0.638812V3.17556H9.45068V0.638812C9.45068 0.322573 9.68416 0.0644531 9.97022 0.0644531ZM13.3394 4.72599V12.4508H9.45068V4.72599H13.3394ZM13.3394 14.0029V16.3619C13.3394 16.6781 13.106 16.9363 12.8199 16.9363H9.97022C9.68416 16.9363 9.45068 16.6781 9.45068 16.3619V14.0029H13.3394Z" fill="#049294"/>
<path fill-rule="evenodd" clip-rule="evenodd" d="M15.6309 0.0644531H18.479C18.7651 0.0644531 18.9985 0.322573 18.9985 0.638812V3.17556H18.9954H15.1113V0.638812C15.1113 0.322573 15.3464 0.0644531 15.6309 0.0644531ZM19.0001 4.72599V12.4508H15.1113V4.72599H18.997H19.0001ZM19.0001 14.0029V16.3619C19.0001 16.6781 18.7666 16.9363 18.4805 16.9363H15.6324C15.3464 16.9363 15.1129 16.6781 15.1129 16.3619V14.0029H19.0001Z" fill="#049294"/>
<path fill-rule="evenodd" clip-rule="evenodd" d="M5.55884 0.0343664L8.23535 1.11129C8.50439 1.21898 8.64355 1.55061 8.54614 1.84804L7.76221 4.23095L4.10848 2.76086L4.89241 0.377956C4.99137 0.0805202 5.29134 -0.0733259 5.55884 0.0343664ZM7.28288 5.68907L4.89396 12.9489L1.24023 11.4788L3.62915 4.22069L7.28288 5.68907ZM4.41463 14.407L3.68481 16.6224C3.5874 16.9198 3.28743 17.0737 3.01839 16.966L0.341877 15.8891C0.0728339 15.7814 -0.0663263 15.4498 0.0310858 15.1523L0.760904 12.9369L4.41463 14.407Z" fill="#049294"/>
</svg>
