<svg width="38" height="34" viewBox="0 0 38 34" fill="none" xmlns="http://www.w3.org/2000/svg">
<path fill-rule="evenodd" clip-rule="evenodd" d="M0 30.0962H4.55208V0.47218C4.55208 0.213534 4.77165 0 5.0376 0H20.4565C20.7225 0 20.9421 0.213534 20.9421 0.47218V11.5789H34.5859C34.8519 11.5789 35.0715 11.7925 35.0715 12.0511V30.0932H38V34H0V30.0962ZM8.44857 4.45714H11.6029C11.6987 4.45714 11.7791 4.53534 11.7791 4.62857V8.34586C11.7791 8.4391 11.6987 8.51729 11.6029 8.51729H8.44857C8.3527 8.51729 8.2723 8.4391 8.2723 8.34586V4.62857C8.2723 4.53534 8.3527 4.45714 8.44857 4.45714ZM13.7923 22.9474H16.9466C17.0425 22.9474 17.1229 23.0256 17.1229 23.1188V26.8361C17.1229 26.9293 17.0425 27.0075 16.9466 27.0075H13.7923C13.6965 27.0075 13.616 26.9293 13.616 26.8361V23.1188C13.616 23.0226 13.6965 22.9474 13.7923 22.9474ZM8.44857 22.9474H11.6029C11.6987 22.9474 11.7791 23.0256 11.7791 23.1188V26.8361C11.7791 26.9293 11.6987 27.0075 11.6029 27.0075H8.44857C8.3527 27.0075 8.2723 26.9293 8.2723 26.8361V23.1188C8.2723 23.0226 8.3527 22.9474 8.44857 22.9474ZM13.7923 16.782H16.9466C17.0425 16.782 17.1229 16.8601 17.1229 16.9534V20.6707C17.1229 20.7639 17.0425 20.8421 16.9466 20.8421H13.7923C13.6965 20.8421 13.616 20.7639 13.616 20.6707V16.9564C13.616 16.8601 13.6965 16.782 13.7923 16.782ZM8.44857 16.782H11.6029C11.6987 16.782 11.7791 16.8601 11.7791 16.9534V20.6707C11.7791 20.7639 11.6987 20.8421 11.6029 20.8421H8.44857C8.3527 20.8421 8.2723 20.7639 8.2723 20.6707V16.9564C8.2723 16.8601 8.3527 16.782 8.44857 16.782ZM13.7923 10.6195H16.9466C17.0425 10.6195 17.1229 10.6977 17.1229 10.791V14.5083C17.1229 14.6015 17.0425 14.6797 16.9466 14.6797H13.7923C13.6965 14.6797 13.616 14.6015 13.616 14.5083V10.791C13.616 10.6977 13.6965 10.6195 13.7923 10.6195ZM8.44857 10.6195H11.6029C11.6987 10.6195 11.7791 10.6977 11.7791 10.791V14.5083C11.7791 14.6015 11.6987 14.6797 11.6029 14.6797H8.44857C8.3527 14.6797 8.2723 14.6015 8.2723 14.5083V10.791C8.2723 10.6977 8.3527 10.6195 8.44857 10.6195ZM13.7923 4.45714H16.9466C17.0425 4.45714 17.1229 4.53534 17.1229 4.62857V8.34586C17.1229 8.4391 17.0425 8.51729 16.9466 8.51729H13.7923C13.6965 8.51729 13.616 8.4391 13.616 8.34586V4.62857C13.616 4.53534 13.6965 4.45714 13.7923 4.45714ZM7.1652 2.2015H18.2733C18.465 2.2015 18.6227 2.38496 18.6227 2.60752V28.4331C18.6227 28.6556 18.465 28.8391 18.2733 28.8391H7.1652C6.97347 28.8391 6.81576 28.6556 6.81576 28.4331V2.60752C6.81576 2.38496 6.97347 2.2015 7.1652 2.2015ZM22.4543 16.0692H25.6086C25.7044 16.0692 25.7848 16.1474 25.7848 16.2406V19.9579C25.7848 20.0511 25.7044 20.1293 25.6086 20.1293H22.4543C22.3584 20.1293 22.278 20.0511 22.278 19.9579V16.2406C22.278 16.1474 22.3584 16.0692 22.4543 16.0692ZM27.798 22.9474H30.9523C31.0482 22.9474 31.1286 23.0256 31.1286 23.1188V26.8361C31.1286 26.9293 31.0482 27.0075 30.9523 27.0075H27.798C27.7022 27.0075 27.6217 26.9293 27.6217 26.8361V23.1188C27.6217 23.0226 27.7022 22.9474 27.798 22.9474ZM22.4543 22.9474H25.6086C25.7044 22.9474 25.7848 23.0256 25.7848 23.1188V26.8361C25.7848 26.9293 25.7044 27.0075 25.6086 27.0075H22.4543C22.3584 27.0075 22.278 26.9293 22.278 26.8361V23.1188C22.278 23.0226 22.3584 22.9474 22.4543 22.9474ZM27.798 16.0692H30.9523C31.0482 16.0692 31.1286 16.1474 31.1286 16.2406V19.9579C31.1286 20.0511 31.0482 20.1293 30.9523 20.1293H27.798C27.7022 20.1293 27.6217 20.0511 27.6217 19.9579V16.2406C27.6217 16.1474 27.7022 16.0692 27.798 16.0692ZM21.2946 13.7805H32.4027C32.5944 13.7805 32.7521 13.9639 32.7521 14.1865V28.4331C32.7521 28.6556 32.5944 28.8391 32.4027 28.8391H21.2946C21.1029 28.8391 20.9452 28.6556 20.9452 28.4331V14.1865C20.9452 13.9639 21.1029 13.7805 21.2946 13.7805Z" fill="white"/>
</svg>
