<svg width="32" height="36" viewBox="0 0 32 36" fill="none" xmlns="http://www.w3.org/2000/svg">
<path fill-rule="evenodd" clip-rule="evenodd" d="M0.539412 4.23741H7.07581L7.06716 4.12491V1.19132C7.06716 0.536527 7.74791 0 8.58443 0C9.41807 0 10.1017 0.539412 10.1017 1.19132V4.12491L10.0931 4.23741H21.2245L21.2159 4.12491V1.19132C21.2159 0.536527 21.8967 0 22.7303 0C23.5639 0 24.2476 0.539412 24.2476 1.19132V4.12491L24.2389 4.23741H31.1936C31.4907 4.23741 31.733 4.47971 31.733 4.77682V10.3902C31.733 10.6873 31.4907 10.9296 31.1936 10.9296H0.539412C0.242303 10.9267 0 10.6844 0 10.3873V4.77394C0 4.47683 0.242303 4.23741 0.539412 4.23741ZM0.135574 12.1699H31.6003C31.6753 12.1699 31.733 12.2305 31.733 12.3026V35.3098C31.733 35.3819 31.6724 35.4425 31.6003 35.4425H0.135574C0.0634602 35.4425 0 35.3819 0 35.3098V12.3055C0 12.2305 0.0605756 12.1699 0.135574 12.1699ZM28.0581 15.2189H24.1062C23.8668 15.2189 23.6735 15.4006 23.6735 15.6227V19.2977C23.6735 19.5198 23.8668 19.7015 24.1062 19.7015H28.0609C28.3004 19.7015 28.4965 19.5198 28.4965 19.2977V15.6227C28.4936 15.4006 28.2975 15.2189 28.0581 15.2189ZM3.53069 21.614H7.48253C7.72195 21.614 7.9181 21.7957 7.9181 22.0178V25.6927C7.9181 25.9148 7.72195 26.0966 7.48253 26.0966H3.66627C3.42685 26.0966 3.23359 25.9148 3.23359 25.6927V21.8851C3.23359 21.663 3.42973 21.4813 3.66627 21.4813L3.53069 21.614ZM3.53069 28.0119H7.48253C7.72195 28.0119 7.9181 28.1936 7.9181 28.4157V32.0907C7.9181 32.3128 7.72195 32.4945 7.48253 32.4945H3.66338C3.42397 32.4945 3.2307 32.3128 3.2307 32.0907V28.4157C3.2307 28.1936 3.42685 28.0119 3.66338 28.0119H3.53069ZM3.53069 15.2189H7.48253C7.72195 15.2189 7.9181 15.4006 7.9181 15.6227V19.2977C7.9181 19.5198 7.72195 19.7015 7.48253 19.7015H3.66338C3.42397 19.7015 3.2307 19.5198 3.2307 19.2977V15.6227C3.2307 15.4006 3.42685 15.2189 3.66338 15.2189H3.53069ZM10.3902 15.2189H14.3449C14.5843 15.2189 14.7776 15.4006 14.7776 15.6227V19.2977C14.7776 19.5198 14.5814 19.7015 14.3449 19.7015H10.3902C10.1507 19.7015 9.9546 19.5198 9.9546 19.2977V15.6227C9.9546 15.4006 10.1507 15.2189 10.3902 15.2189ZM10.3902 21.614H14.3449C14.5843 21.614 14.7776 21.7957 14.7776 22.0178V25.6927C14.7776 25.9148 14.5814 26.0966 14.3449 26.0966H10.3902C10.1507 26.0966 9.9546 25.9148 9.9546 25.6927V21.8851C9.9546 21.663 10.1507 21.4813 10.3902 21.4813V21.614ZM10.3902 28.0119H14.3449C14.5843 28.0119 14.7776 28.1936 14.7776 28.4157V32.0907C14.7776 32.3128 14.5814 32.4945 14.3449 32.4945H10.3902C10.1507 32.4945 9.9546 32.3128 9.9546 32.0907V28.4157C9.9546 28.1936 10.1507 28.0119 10.3902 28.0119ZM17.2467 15.2189H21.2015C21.4409 15.2189 21.637 15.4006 21.637 15.6227V19.2977C21.637 19.5198 21.4409 19.7015 21.2015 19.7015H17.2467C17.0073 19.7015 16.8112 19.5198 16.8112 19.2977V15.6227C16.8141 15.4006 17.0073 15.2189 17.2467 15.2189ZM17.2467 21.614H21.2015C21.4409 21.614 21.637 21.7957 21.637 22.0178V25.6927C21.637 25.9148 21.4409 26.0966 21.2015 26.0966H17.2467C17.0073 26.0966 16.8112 25.9148 16.8112 25.6927V21.8851C16.8112 21.663 17.0073 21.4813 17.2467 21.4813V21.614ZM28.0581 21.614H24.1062C23.8668 21.614 23.6735 21.7957 23.6735 22.0178V25.6927C23.6735 25.9148 23.8668 26.0966 24.1062 26.0966H28.0609C28.3004 26.0966 28.4965 25.9148 28.4965 25.6927V21.8822C28.4965 21.6601 28.3004 21.4784 28.0609 21.4784L28.0581 21.614ZM28.0581 28.0119H24.1062C23.8668 28.0119 23.6735 28.1936 23.6735 28.4157V32.0907C23.6735 32.3128 23.8668 32.4945 24.1062 32.4945H28.0609C28.3004 32.4945 28.4965 32.3128 28.4965 32.0907V28.2802C28.4965 28.0581 28.3004 27.8763 28.0609 27.8763L28.0581 28.0119ZM17.2467 28.0119H21.2015C21.4409 28.0119 21.637 28.1936 21.637 28.4157V32.0907C21.637 32.3128 21.4409 32.4945 21.2015 32.4945H17.2467C17.0073 32.4945 16.8112 32.3128 16.8112 32.0907V28.4157C16.8141 28.1936 17.0073 28.0119 17.2467 28.0119ZM2.02207 13.7622H29.9792C30.1292 13.7622 30.2503 13.8891 30.2503 14.0334V33.582C30.2503 33.7262 30.1234 33.8531 29.9792 33.8531H1.75381C1.60958 33.8531 1.48266 33.732 1.48266 33.582V14.3016C1.48266 14.0045 1.72496 13.7622 2.02207 13.7622ZM22.7303 8.48059C23.5639 8.48059 24.2476 7.94118 24.2476 7.28927V4.35856L24.2389 4.24029H21.2245L21.2159 4.35856V7.28927C21.2159 7.94406 21.8967 8.48059 22.7303 8.48059ZM8.58443 8.48059C9.41807 8.48059 10.1017 7.94118 10.1017 7.28927V4.35856L10.0931 4.24029H7.07581L7.06716 4.35856V7.28927C7.06716 7.94406 7.74791 8.48059 8.58443 8.48059Z" fill="white"/>
</svg>
