<svg width="21" height="17" viewBox="0 0 21 17" fill="none" xmlns="http://www.w3.org/2000/svg">
<path fill-rule="evenodd" clip-rule="evenodd" d="M17.4234 13.6613L17.3361 9.02328L12.0259 11.2251C11.5474 11.3759 11.0754 11.4479 10.613 11.4502C10.1168 11.4525 9.62859 11.3759 9.14849 11.2251L4.07589 9.00007V13.7031C4.22137 16.1462 9.10484 16.8933 10.6033 16.9954C11.8044 17.079 16.5489 16.1787 17.1728 14.775C17.307 14.4688 17.3911 14.0975 17.4234 13.6613ZM19.575 5.68453V11.3527H19.6994C19.7851 11.3527 19.8546 11.4525 19.8546 11.5755V13.0998C19.8546 13.2205 19.7851 13.3226 19.6994 13.3226H19.575V13.8562C19.7334 13.898 19.8546 14.0998 19.8546 14.3388C19.8546 14.608 19.6994 14.8307 19.5119 14.8307H18.8993C18.7117 14.8307 18.5566 14.6103 18.5566 14.3388C18.5566 14.0998 18.6778 13.898 18.8362 13.8562V13.3226H18.7117C18.6277 13.3226 18.5566 13.2228 18.5566 13.0998V11.5755C18.5566 11.4525 18.6261 11.3527 18.7117 11.3527H18.8362V6.01631L12.3734 8.89798C11.2031 9.29706 10.0327 9.3249 8.86237 8.89798L1.72872 5.8423L1.08373 5.5662C0.280331 5.0952 0.480778 3.98847 1.22922 3.73325L9.29721 0.276174C10.1297 -0.0648932 10.9606 -0.118257 11.7931 0.276174L19.7156 3.69149C20.5772 3.99311 20.7469 5.13696 19.7447 5.60796L19.575 5.68453Z" fill="white"/>
</svg>
