<svg width="21" height="21" viewBox="0 0 21 21" fill="none" xmlns="http://www.w3.org/2000/svg">
<path fill-rule="evenodd" clip-rule="evenodd" d="M14.8698 2.91327L7.95313 7.0564H9.92011L15.0266 3.99748L15.7764 3.54817L17.9383 7.0564H19.1968C19.4709 7.0564 19.7187 7.1671 19.8987 7.34292C20.0787 7.52037 20.191 7.76456 20.191 8.03317V19.5249C20.191 19.7935 20.0787 20.0377 19.9003 20.2135V20.2151C19.7203 20.3926 19.4726 20.5016 19.1984 20.5016H1.80282C1.52866 20.5016 1.28093 20.3926 1.10092 20.2151V20.2135C0.920898 20.0377 0.808594 19.7935 0.808594 19.5265V8.03317C0.808594 7.76456 0.920898 7.51874 1.09926 7.34292C1.27928 7.16547 1.52701 7.0564 1.80117 7.0564H2.21405L12.9523 0.624375C13.0894 0.542978 13.2446 0.499023 13.4048 0.499023C13.4742 0.499023 13.5436 0.507163 13.6113 0.523443C13.8359 0.577165 14.0308 0.717169 14.1497 0.912522L15.2447 2.68861L14.8698 2.91327ZM1.78135 7.92572C1.74336 7.96642 1.71198 8.01201 1.68886 8.06247V9.47716H19.3074V8.03317C19.3074 8.00224 19.2959 7.97456 19.276 7.95666H19.2744C19.2546 7.93712 19.2265 7.9241 19.1951 7.9241H1.80117C1.79456 7.9241 1.78795 7.9241 1.78135 7.92572ZM3.44775 14.2894H6.59392V15.4501H3.44775V14.2894ZM3.44775 17.0374H12.2422V18.0841H3.44775V17.0374ZM15.0465 14.2894H18.1926V15.4501H15.0465V14.2894ZM11.1802 14.2894H14.3264V15.4501H11.1802V14.2894ZM7.31399 14.2894H10.4602V15.4501H7.31399V14.2894ZM19.3074 12.7314H1.68886V19.5249C1.68886 19.5558 1.70042 19.5835 1.72189 19.603H1.72354C1.74501 19.6242 1.77309 19.6356 1.80117 19.6356H19.1968C19.2265 19.6356 19.2546 19.6225 19.276 19.603C19.2975 19.5818 19.3091 19.5542 19.3091 19.5249V12.7314H19.3074Z" fill="white"/>
</svg>
