<svg width="40" height="40" viewBox="0 0 40 40" fill="none" xmlns="http://www.w3.org/2000/svg">
<g clip-path="url(#clip0_862_589)">
<path fill-rule="evenodd" clip-rule="evenodd" d="M27.425 11.3931C27.3231 11.2877 27.2006 11.2044 27.0651 11.1484C26.9295 11.0924 26.7839 11.0649 26.6373 11.0676C26.4911 11.0647 26.346 11.0922 26.2109 11.1482C26.0759 11.2042 25.954 11.2876 25.8528 11.3931L24.6516 12.5878C24.3268 12.3792 23.9874 12.1942 23.636 12.0344C23.2816 11.8734 22.9187 11.7322 22.5487 11.6112V9.76554C22.5505 9.61971 22.5231 9.47501 22.4681 9.33994C22.4131 9.20487 22.3316 9.08217 22.2285 8.97904C22.1253 8.87592 22.0026 8.79446 21.8676 8.73946C21.7325 8.68446 21.5878 8.65702 21.442 8.65877H19.134C18.9896 8.65799 18.8465 8.68643 18.7134 8.74237C18.5803 8.79831 18.4598 8.8806 18.3593 8.98429C18.2534 9.08584 18.1697 9.20832 18.1137 9.34394C18.0576 9.47956 18.0304 9.62535 18.0338 9.77205V11.455C17.2818 11.6318 16.557 11.9088 15.8788 12.2786L14.5507 10.9765C14.4536 10.871 14.3352 10.7874 14.2033 10.7313C14.0714 10.6752 13.929 10.6478 13.7857 10.651C13.6392 10.6492 13.4939 10.6771 13.3585 10.733C13.2231 10.789 13.1005 10.8718 12.998 10.9765L11.3704 12.6041C11.2645 12.7058 11.1803 12.8279 11.1228 12.963C11.0653 13.0981 11.0356 13.2434 11.0356 13.3902C11.0356 13.537 11.0653 13.6823 11.1228 13.8174C11.1803 13.9525 11.2645 14.0746 11.3704 14.1763L12.565 15.3775C12.3557 15.7019 12.1707 16.0414 12.0116 16.3931C11.8501 16.7473 11.7088 17.1103 11.5885 17.4804H9.76554C9.61971 17.4786 9.47501 17.5061 9.33994 17.5611C9.20487 17.6161 9.08217 17.6975 8.97904 17.8007C8.87592 17.9038 8.79446 18.0265 8.73946 18.1616C8.68446 18.2966 8.65702 18.4413 8.65877 18.5872V20.8658C8.65799 21.0102 8.68643 21.1533 8.74237 21.2864C8.79831 21.4196 8.8806 21.54 8.98429 21.6405C9.08584 21.7465 9.20832 21.8301 9.34394 21.8861C9.47956 21.9422 9.62535 21.9694 9.77205 21.9661H11.455C11.5434 22.347 11.6588 22.7212 11.8 23.0859C11.9386 23.446 12.0973 23.7982 12.2753 24.1405L10.9732 25.4426C10.868 25.5406 10.7846 25.6596 10.7285 25.792C10.6724 25.9244 10.6449 26.0671 10.6477 26.2109C10.6463 26.3573 10.6744 26.5025 10.7303 26.6379C10.7862 26.7732 10.8688 26.8959 10.9732 26.9986L12.6008 28.6262C12.8135 28.8267 13.0947 28.9384 13.387 28.9384C13.6792 28.9384 13.9605 28.8267 14.1731 28.6262L15.3743 27.4088C15.6893 27.6281 16.02 27.824 16.3638 27.9947C16.718 28.1562 17.081 28.2975 17.4511 28.4179V30.2408C17.4493 30.3864 17.4767 30.5308 17.5315 30.6656C17.5863 30.8005 17.6674 30.923 17.7702 31.0261C17.873 31.1292 17.9953 31.2107 18.13 31.2659C18.2647 31.3211 18.409 31.3489 18.5546 31.3476H20.8658C21.0103 31.3487 21.1535 31.3205 21.2867 31.2645C21.4198 31.2085 21.5403 31.126 21.6405 31.0221C21.7465 30.9212 21.8303 30.7994 21.8863 30.6642C21.9424 30.5291 21.9695 30.3838 21.9661 30.2375V28.5579C22.347 28.4694 22.7212 28.3541 23.0859 28.2128C23.4467 28.0745 23.7989 27.9147 24.1405 27.7343L25.4426 29.0364C25.5427 29.1422 25.6633 29.2264 25.7971 29.284C25.9309 29.3416 26.075 29.3713 26.2206 29.3713C26.3663 29.3713 26.5104 29.3416 26.6441 29.284C26.7779 29.2264 26.8985 29.1422 26.9986 29.0364L28.6262 27.4088C28.8267 27.1961 28.9384 26.9149 28.9384 26.6226C28.9384 26.3304 28.8267 26.0491 28.6262 25.8365L27.4088 24.6353C27.6279 24.3168 27.8237 23.9828 27.9947 23.636C28.1562 23.2819 28.2975 22.9189 28.4179 22.5487H30.2408C30.3869 22.5512 30.532 22.5236 30.6669 22.4676C30.8019 22.4116 30.9239 22.3284 31.0253 22.2232C31.131 22.1222 31.2145 22.0002 31.2705 21.8652C31.3266 21.7301 31.3539 21.5849 31.3508 21.4387V19.134C31.352 18.9896 31.3237 18.8464 31.2678 18.7132C31.2118 18.58 31.1293 18.4596 31.0253 18.3593C30.9245 18.2533 30.8026 18.1696 30.6675 18.1135C30.5324 18.0574 30.387 18.0303 30.2408 18.0338H28.5579C28.4655 17.6581 28.3503 17.2885 28.2128 16.927C28.0783 16.5678 27.9184 16.2186 27.7343 15.8821L29.0364 14.5572C29.1421 14.4596 29.2258 14.3407 29.282 14.2082C29.3381 14.0757 29.3653 13.9328 29.3619 13.789C29.3635 13.6425 29.3355 13.4972 29.2795 13.3619C29.2236 13.2265 29.1409 13.1038 29.0364 13.0012L27.4088 11.3736L27.425 11.3931ZM19.9999 15.4784C20.6047 15.4752 21.2038 15.5948 21.761 15.83C22.8472 16.2832 23.7122 17.1447 24.1698 18.2291C24.4018 18.7878 24.5213 19.3868 24.5213 19.9918C24.5213 20.5967 24.4018 21.1958 24.1698 21.7545C23.7149 22.8429 22.8495 23.7084 21.761 24.1633C21.2029 24.3954 20.6044 24.5149 19.9999 24.5149C19.3955 24.5149 18.797 24.3954 18.2388 24.1633C17.1504 23.7084 16.2849 22.8429 15.83 21.7545C15.598 21.1958 15.4786 20.5967 15.4786 19.9918C15.4786 19.3868 15.598 18.7878 15.83 18.2291C16.2853 17.1465 17.1465 16.2853 18.2291 15.83C18.7862 15.5948 19.3854 15.4752 19.9901 15.4784H19.9999Z" fill="#EB5757"/>
<path d="M19.9999 6.2173e-06C15.0458 0.00359517 10.2702 1.8496 6.60169 5.17901C2.9332 8.50842 0.634124 13.0832 0.151583 18.0137C-0.330958 22.9443 1.03753 27.878 3.99091 31.8555C6.94429 35.833 11.2714 38.5699 16.1308 39.5339C20.9902 40.4979 26.0344 39.6201 30.2825 37.0713C34.5306 34.5224 37.6788 30.4847 39.115 25.7434C40.5512 21.0021 40.1726 15.8961 38.0529 11.4184C35.9332 6.94069 32.2239 3.41142 27.6464 1.51693C25.2221 0.513415 22.6237 -0.00206506 19.9999 6.2173e-06ZM6.90095 10.7194L29.2968 33.099C27.0786 34.6672 24.4995 35.6485 21.7999 35.9513C19.1002 36.2541 16.3678 35.8686 13.8573 34.8307C9.92497 33.1956 6.79927 30.0711 5.16267 26.1393C4.35651 24.1931 3.94383 22.1065 3.94848 20C3.93954 16.6741 4.97197 13.4288 6.90095 10.7194ZM32.2004 30.4362L9.56371 7.81251C12.6362 5.20017 16.5794 3.83987 20.609 4.00212C24.6387 4.16436 28.4597 5.83726 31.3123 8.68816C34.1648 11.5391 35.8399 15.3591 36.0045 19.3887C36.169 23.4183 34.811 27.3622 32.2004 30.4362Z" fill="#EB5757"/>
</g>
<defs>
<clipPath id="clip0_862_589">
<rect width="40" height="40" fill="white"/>
</clipPath>
</defs>
</svg>
