<svg width="10" height="10" viewBox="0 0 10 10" fill="none" xmlns="http://www.w3.org/2000/svg">
<path fill-rule="evenodd" clip-rule="evenodd" d="M6.21074 6.36627C5.87422 5.97499 5.52129 5.57761 5.15156 5.18417C3.93945 6.35171 2.81699 7.66641 2.00468 9.15265C1.0082 10.9759 -0.462308 9.48393 0.204879 8.16255C0.741207 6.95703 2.12031 5.28449 3.77793 3.83327C2.86504 3.01255 1.86445 2.27247 0.768551 1.72696C-0.83516 0.928465 0.390035 -0.409642 1.55019 0.121116C2.52754 0.51102 3.87617 1.5149 5.10996 2.76349C6.34258 1.86132 7.64023 1.1543 8.81015 0.877514C9.06406 0.817317 9.80527 0.654628 9.97597 0.897974C10.0402 0.989843 9.96953 1.12775 9.83769 1.27745C9.38867 1.78814 8.18183 2.59785 7.59707 3.06409C7.175 3.40068 6.74648 3.75242 6.32031 4.12068C6.77343 4.68744 7.17851 5.27427 7.50136 5.85519C7.78203 6.35998 8.00039 6.86044 8.13457 7.33966C8.19589 7.55861 8.36406 8.19815 8.16152 8.35592C8.08515 8.41553 7.96406 8.35907 7.83047 8.25009C7.37461 7.87848 6.63339 6.85788 6.21074 6.36627Z" fill="white"/>
</svg>
