<svg width="19" height="25" viewBox="0 0 19 25" fill="none" xmlns="http://www.w3.org/2000/svg">
<path fill-rule="evenodd" clip-rule="evenodd" d="M7.65993 4.77482C7.27813 3.70102 6.93652 2.61763 6.64514 1.51507C7.72625 0.383747 11.9 0.533312 13.1016 1.49781L11.9904 4.01932C12.5892 3.26958 12.7902 2.96278 13.1459 2.54477C13.2966 2.63872 13.4372 2.74419 13.5699 2.85924C13.8853 3.13152 14.1687 3.43449 14.225 3.85442C14.2611 4.1267 14.1807 4.40474 13.9255 4.68853L11.3755 7.52259C11.0479 7.47082 10.7264 7.39604 10.415 7.29057C10.5596 6.96652 10.7345 6.60794 10.8791 6.28389L9.95076 7.2388C8.98419 7.04322 8.20451 7.16018 7.48109 7.52643L4.89286 4.56389C4.74014 4.38748 4.66981 4.21107 4.66981 4.03466C4.67182 3.31944 5.7891 2.70008 6.37788 2.46615L7.65993 4.77482ZM10.9756 10.1266L10.4712 7.92335C12.6334 8.30685 16.0998 12.5042 17.2191 14.4122C17.7898 15.3862 18.2922 16.46 18.7021 17.6585C19.518 20.5616 18.7323 23.2767 15.4327 23.9095C13.3649 24.3064 9.50867 24.3333 7.3344 24.2259C4.99735 24.1109 1.37826 24.1147 0.433793 21.8233C-1.09141 18.1264 1.70379 13.7219 4.25183 11.0259C4.58742 10.6711 4.93305 10.3413 5.29275 10.0345C6.21913 9.25601 7.21986 8.33369 8.41149 7.94827L7.25804 9.99616L8.93195 7.87924H9.81411L10.9756 10.1266ZM9.90052 11.9348V12.324C10.3326 12.3681 10.7043 12.4525 11.0138 12.579C11.3232 12.7075 11.5925 12.8993 11.8236 13.1581C12.0065 13.3556 12.1471 13.5589 12.2456 13.766C12.3441 13.975 12.3943 14.1648 12.3943 14.3393C12.3943 14.533 12.32 14.6998 12.1733 14.8398C12.0246 14.9797 11.8457 15.0507 11.6347 15.0507C11.2368 15.0507 10.9796 14.8455 10.8631 14.4371C10.7284 13.9558 10.4089 13.6337 9.89851 13.4764V15.8829C10.3989 16.0133 10.8008 16.1341 11.0962 16.2415C11.3936 16.3488 11.6608 16.5041 11.8939 16.7093C12.1451 16.9202 12.338 17.1753 12.4747 17.4686C12.6093 17.7639 12.6776 18.0861 12.6776 18.437C12.6776 18.8761 12.5711 19.2884 12.3521 19.6699C12.1351 20.0554 11.8156 20.366 11.3956 20.6114C10.9736 20.8549 10.4752 20.9988 9.8965 21.0429V21.436C9.8965 21.6622 9.87239 21.829 9.82617 21.9326C9.77995 22.0361 9.67948 22.0879 9.52073 22.0879C9.37604 22.0879 9.27356 22.0457 9.21528 21.9613C9.15701 21.877 9.12888 21.7447 9.12888 21.5663V21.0525C8.65664 21.0026 8.24269 20.8971 7.88902 20.7341C7.53535 20.5731 7.23995 20.3717 7.00283 20.1301C6.76772 19.8866 6.59088 19.6373 6.48036 19.3785C6.36582 19.1177 6.31156 18.8608 6.31156 18.6115C6.31156 18.4274 6.38592 18.2606 6.53864 18.1129C6.68935 17.9653 6.87824 17.8905 7.1033 17.8905C7.28617 17.8905 7.43889 17.9308 7.56549 18.0113C7.69008 18.0918 7.77649 18.2069 7.82672 18.3526C7.93524 18.669 8.02968 18.9106 8.11006 19.0793C8.19245 19.2462 8.31503 19.4015 8.4778 19.5395C8.64057 19.6776 8.85759 19.785 9.12888 19.8579V17.1695C8.58631 17.0257 8.13619 16.8685 7.77247 16.6921C7.40875 16.5157 7.11335 16.2683 6.88829 15.9442C6.66323 15.6202 6.54869 15.2041 6.54869 14.6959C6.54869 14.0325 6.76973 13.4879 7.21182 13.0661C7.65391 12.6423 8.29293 12.395 9.12888 12.3259V11.9482C9.12888 11.6241 9.25748 11.463 9.51068 11.463C9.77191 11.4611 9.90052 11.6184 9.90052 11.9348ZM9.13089 15.6662V13.4515C8.79128 13.5474 8.52603 13.6739 8.33713 13.8331C8.14623 13.9903 8.05179 14.2319 8.05179 14.5521C8.05179 14.8551 8.1402 15.0871 8.31905 15.2424C8.49588 15.3978 8.76717 15.5396 9.13089 15.6662ZM9.90052 17.3824V19.9173C10.3084 19.8406 10.6219 19.6853 10.845 19.4494C11.066 19.2117 11.1786 18.9394 11.1786 18.6268C11.1786 18.2913 11.07 18.0324 10.853 17.8483C10.638 17.6642 10.3205 17.5089 9.90052 17.3824Z" fill="#F9F9F9"/>
</svg>
