<svg width="39" height="39" viewBox="0 0 39 39" fill="none" xmlns="http://www.w3.org/2000/svg">
<path d="M34.8717 16.4066C34.4821 16.4066 34.1083 16.5614 33.8328 16.8371C33.5572 17.1127 33.4024 17.4865 33.4024 17.8763V34.7777C33.4024 35.1207 33.2662 35.4496 33.0237 35.6922C32.7812 35.9347 32.4524 36.071 32.1094 36.071H4.23163C3.8904 36.0684 3.56403 35.931 3.32366 35.6887C3.0833 35.4465 2.94842 35.119 2.94843 34.7777V6.89285C2.94842 6.55153 3.0833 6.22404 3.32366 5.98178C3.56403 5.73951 3.8904 5.60211 4.23163 5.59952H21.119C21.5086 5.59952 21.8824 5.44468 22.1579 5.16906C22.4335 4.89345 22.5883 4.51962 22.5883 4.12984C22.5883 3.74006 22.4335 3.36624 22.1579 3.09062C21.8824 2.815 21.5086 2.66016 21.119 2.66016H4.23163C3.11012 2.66274 2.0353 3.10952 1.24227 3.90274C0.449249 4.69596 0.0025871 5.77106 0 6.89285V34.7777C0.00516939 35.8977 0.452971 36.9703 1.24572 37.7614C2.03846 38.5525 3.11182 38.998 4.23163 39.0005H32.1094C33.2292 38.998 34.3026 38.5525 35.0953 37.7614C35.8881 36.9703 36.3359 35.8977 36.3411 34.7777V17.8763C36.3411 17.4865 36.1863 17.1127 35.9107 16.8371C35.6352 16.5614 35.2614 16.4066 34.8717 16.4066Z" fill="#F5F7F9"/>
<path d="M37.2229 1.7778C36.0792 0.639209 34.5313 0 32.9178 0C31.3042 0 29.7563 0.639209 28.6127 1.7778L17.5144 12.8788C17.3532 13.0412 17.2324 13.2392 17.1618 13.4569L13.9195 23.2548C13.8358 23.5125 13.825 23.7884 13.8883 24.052C13.9515 24.3155 14.0864 24.5564 14.278 24.748C14.4696 24.9396 14.7104 25.0746 14.9739 25.1378C15.2373 25.2011 15.5132 25.1903 15.7709 25.1066L25.5663 21.8635C25.7839 21.7928 25.9819 21.672 26.1442 21.5108L37.2229 10.3902C38.3612 9.24624 39.0002 7.69795 39.0002 6.08398C39.0002 4.47 38.3612 2.92171 37.2229 1.7778ZM24.2929 19.1691L17.6222 21.3834L19.836 14.711L27.829 6.72574L32.2762 11.174L24.2929 19.1691ZM35.1462 8.32279L34.3528 9.10663L29.9057 4.65838L30.6893 3.86475C31.288 3.3127 32.0771 3.01367 32.8912 3.03023C33.7054 3.0468 34.4816 3.37768 35.0574 3.95364C35.6332 4.52959 35.964 5.30598 35.9805 6.12034C35.9971 6.93469 35.6981 7.72389 35.1462 8.32279Z" fill="#F5F7F9"/>
</svg>
