<svg width="94" height="110" viewBox="0 0 94 110" fill="none" xmlns="http://www.w3.org/2000/svg">
<path fill-rule="evenodd" clip-rule="evenodd" d="M45.5045 109.525C46.1136 109.843 46.7947 110.005 47.4757 110C48.1568 109.994 48.8323 109.827 49.4469 109.504L69.0703 99.0135C74.635 96.0472 78.9927 92.7303 82.3924 88.8687C89.7844 80.4551 93.8209 69.717 93.7489 58.6445L93.5164 22.1209C93.4942 17.9141 90.7312 14.1604 86.6449 12.7958L50.139 0.547603C47.9408 -0.196676 45.5322 -0.180496 43.3728 0.585356L7.00535 13.2705C2.94115 14.6889 0.227986 18.4696 0.250135 22.6818L0.482691 59.1784C0.554673 70.2671 4.72962 80.9567 12.2434 89.284C15.6764 93.0917 20.0728 96.36 25.6985 99.2778L45.5045 109.525ZM40.3098 66.5991C41.1292 67.3865 42.1924 67.7749 43.2555 67.7641C44.3186 67.7587 45.3762 67.3596 46.1846 66.5614L67.6296 45.4195C69.2409 43.8285 69.2243 41.2721 67.5964 39.7026C65.963 38.1331 63.3329 38.1439 61.7216 39.735L43.1946 57.9968L35.6088 50.705C33.9754 49.1355 31.3508 49.1517 29.734 50.7427C28.1227 52.3338 28.1393 54.8902 29.7727 56.4597L40.3098 66.5991Z" fill="white"/>
</svg>
