<svg width="40" height="40" viewBox="0 0 40 40" fill="none" xmlns="http://www.w3.org/2000/svg">
<path d="M2.24935 5.36203e-05H16.2077C16.5455 -0.00230152 16.8795 0.072955 17.1842 0.220123C17.4853 0.365949 17.7509 0.576758 17.9622 0.83763C18.1217 1.03843 18.2441 1.2665 18.3236 1.51097C18.4125 1.75384 18.4577 2.0108 18.457 2.26972V16.2917C18.4562 16.5964 18.3953 16.8978 18.278 17.1786C18.1588 17.4599 17.9838 17.7137 17.7637 17.9242C17.3487 18.3379 16.791 18.5734 16.2077 18.5811H2.24935C1.9645 18.572 1.68394 18.5084 1.42253 18.3939C1.15597 18.2881 0.911822 18.132 0.70313 17.934C0.484648 17.7221 0.309853 17.4687 0.188807 17.1884C0.0637204 16.9064 -0.000630593 16.6007 4.65775e-06 16.2917V2.26972C0.000794267 1.998 0.0504259 1.72868 0.146489 1.47484C0.240069 1.21948 0.379066 0.983497 0.556645 0.778507L0.651046 0.686537C0.84438 0.487544 1.0715 0.325125 1.32162 0.206984C1.61302 0.0729954 1.92913 0.00248594 2.24935 5.36203e-05ZM36.7122 23.7478C36.6291 23.6583 36.5281 23.5877 36.4158 23.5407C36.3036 23.4937 36.1827 23.4714 36.0612 23.4752C35.9429 23.4736 35.8256 23.497 35.7168 23.5439C35.608 23.5909 35.5102 23.6603 35.4297 23.7478L34.4531 24.7332C34.1928 24.562 33.9196 24.4116 33.6361 24.2832C33.3502 24.158 33.0579 24.0483 32.7604 23.9547V22.4307C32.7656 22.3088 32.7451 22.1872 32.7002 22.0739C32.6553 21.9607 32.5871 21.8584 32.5 21.7737C32.4155 21.687 32.3139 21.6191 32.2017 21.5744C32.0896 21.5297 31.9694 21.5092 31.849 21.5143H30.0293C29.9133 21.5134 29.7982 21.5359 29.6909 21.5805C29.5836 21.625 29.4861 21.6907 29.4043 21.7737C29.3164 21.858 29.2472 21.9602 29.2012 22.0734C29.1551 22.1866 29.1334 22.3084 29.1374 22.4307V23.8003C28.5333 23.9393 27.9508 24.1603 27.4056 24.4573L26.3346 23.4029C26.2567 23.3156 26.1613 23.2462 26.0546 23.1991C25.9479 23.1521 25.8325 23.1287 25.7161 23.1303C25.5981 23.1301 25.4811 23.1541 25.3726 23.201C25.264 23.2479 25.166 23.3166 25.0846 23.4029L23.7826 24.7168C23.6973 24.7998 23.6295 24.8993 23.5832 25.0093C23.5369 25.1194 23.513 25.2377 23.513 25.3573C23.513 25.4768 23.5369 25.5951 23.5832 25.7052C23.6295 25.8152 23.6973 25.9147 23.7826 25.9978L24.7591 26.9831C24.5901 27.2474 24.4411 27.5241 24.3132 27.8109C24.189 28.0993 24.0804 28.3942 23.9876 28.6944H22.4609C22.3402 28.6892 22.2197 28.7099 22.1074 28.7552C21.9952 28.8005 21.8938 28.8693 21.8099 28.9572C21.7235 29.0423 21.6557 29.1447 21.6108 29.2579C21.566 29.371 21.5451 29.4923 21.5495 29.6141V31.4896C21.5492 31.6069 21.5721 31.7231 21.6168 31.8314C21.6615 31.9396 21.7272 32.0379 21.8099 32.1203C21.8934 32.209 21.9946 32.2788 22.1068 32.3253C22.2191 32.3717 22.3397 32.3936 22.4609 32.3896H23.8184C23.8884 32.6993 23.9809 33.0034 24.0951 33.2994C24.2072 33.5922 24.3354 33.8784 24.4792 34.1567L23.4375 35.1914C23.3512 35.2701 23.2824 35.3665 23.2359 35.4741C23.1893 35.5817 23.1659 35.6981 23.1673 35.8155C23.1662 35.9357 23.1896 36.0549 23.2361 36.1657C23.2826 36.2764 23.3511 36.3764 23.4375 36.4592L24.7396 37.7928C24.911 37.9554 25.1374 38.0459 25.3727 38.0459C25.608 38.0459 25.8344 37.9554 26.0059 37.7928L26.9824 36.8074C27.2451 36.9756 27.5192 37.1249 27.8027 37.2541C28.088 37.3807 28.3804 37.4904 28.6784 37.5826V39.0869C28.6732 39.2088 28.6937 39.3304 28.7386 39.4436C28.7835 39.5569 28.8517 39.6592 28.9388 39.7439C29.0208 39.8287 29.1191 39.8958 29.2277 39.941C29.3363 39.9862 29.4529 40.0085 29.5703 40.0066H31.4323C31.5485 40.0069 31.6637 39.9838 31.771 39.9387C31.8783 39.8935 31.9756 39.8273 32.0573 39.7439C32.1452 39.6596 32.2144 39.5574 32.2604 39.4442C32.3064 39.331 32.3282 39.2092 32.3242 39.0869V37.7173C32.6312 37.6466 32.9325 37.5533 33.2259 37.4381C33.5166 37.3263 33.8004 37.1969 34.0755 37.0505L35.127 38.1147C35.2076 38.2007 35.3047 38.2692 35.4125 38.316C35.5202 38.3628 35.6363 38.3869 35.7536 38.3869C35.8709 38.3869 35.987 38.3628 36.0947 38.316C36.2024 38.2692 36.2996 38.2007 36.3802 38.1147L37.7018 36.8008C37.8681 36.6239 37.9582 36.3877 37.9525 36.1439C37.9562 36.0231 37.936 35.9027 37.8929 35.7899C37.8499 35.6771 37.7849 35.5741 37.7018 35.487L36.7253 34.5016C36.8942 34.2374 37.0433 33.9607 37.1712 33.6739C37.2953 33.3855 37.404 33.0905 37.4967 32.7903H38.9779C39.0985 32.7948 39.2188 32.7737 39.3309 32.7284C39.443 32.6832 39.5445 32.6147 39.6289 32.5276C39.716 32.4429 39.7842 32.3406 39.8291 32.2274C39.874 32.1141 39.8945 31.9925 39.8893 31.8706V30.0542C39.8876 29.8158 39.7925 29.5878 39.6248 29.4198C39.4571 29.2518 39.2304 29.1575 38.9941 29.1575H37.6367C37.5644 28.8506 37.4719 28.5489 37.36 28.2543C37.251 27.9623 37.1227 27.6781 36.9759 27.4036L38.0306 26.3262C38.1169 26.2475 38.1857 26.1511 38.2322 26.0435C38.2788 25.9359 38.3022 25.8195 38.3008 25.7021C38.3037 25.5797 38.2812 25.4579 38.2347 25.3448C38.1881 25.2317 38.1186 25.1296 38.0306 25.0452L36.7285 23.7314L36.7122 23.7478ZM30.7259 27.0817C31.2143 27.0793 31.6982 27.1765 32.1484 27.3674C32.5865 27.55 32.9846 27.8181 33.3198 28.1563C33.6549 28.4945 33.9206 28.8961 34.1016 29.3382C34.2884 29.7927 34.3846 30.2799 34.3846 30.7719C34.3846 31.264 34.2884 31.7512 34.1016 32.2057C33.9206 32.6477 33.6549 33.0494 33.3198 33.3876C32.9846 33.7258 32.5865 33.9938 32.1484 34.1764C31.6956 34.3637 31.2105 34.4587 30.721 34.4559C30.2316 34.4531 29.7476 34.3525 29.2969 34.16C28.8588 33.9774 28.4607 33.7093 28.1256 33.3711C27.7904 33.033 27.5247 32.6313 27.3438 32.1892C27.1569 31.7348 27.0607 31.2476 27.0607 30.7555C27.0607 30.2635 27.1569 29.7763 27.3438 29.3218C27.5247 28.8797 27.7904 28.4781 28.1256 28.1399C28.4607 27.8017 28.8588 27.5336 29.2969 27.351C29.7461 27.1604 30.2288 27.0632 30.7161 27.0653L30.7259 27.0817ZM2.24935 21.4354H16.2077C16.5455 21.4331 16.8795 21.5083 17.1842 21.6555C17.4845 21.8027 17.7498 22.0133 17.9622 22.273C18.1246 22.4679 18.2514 22.6903 18.3366 22.9299C18.4253 23.1729 18.4705 23.4298 18.4701 23.6887V37.714C18.4685 38.0186 18.4077 38.3199 18.291 38.6008C18.0534 39.1533 17.6104 39.5897 17.0573 39.8161C16.7918 39.9261 16.5077 39.983 16.2207 39.9836H2.24935C1.96596 39.9819 1.68545 39.9261 1.42253 39.8194C1.15519 39.7136 0.910839 39.5563 0.70313 39.3563C0.484295 39.1434 0.30948 38.8889 0.188807 38.6074C0.0660289 38.3315 0.00172129 38.0328 4.65775e-06 37.7304V23.7051C0.00422974 23.1581 0.201592 22.6305 0.556645 22.2172L0.651046 22.1219C0.846322 21.9223 1.07569 21.7598 1.32813 21.6424C1.61953 21.5084 1.93564 21.4379 2.25586 21.4354H2.24935ZM16.2077 23.6985H2.24935V37.7304C3.44401 37.7304 16.2109 37.7304 16.2207 37.7304C16.2207 36.5479 16.2207 23.7051 16.2207 23.6985H16.2077ZM23.7923 5.36203e-05H37.7604C38.0982 -0.00195805 38.4321 0.0732815 38.737 0.220123C39.0368 0.366355 39.3013 0.577137 39.5117 0.83763C39.6756 1.03809 39.8034 1.26599 39.8893 1.51097C39.9783 1.75384 40.0235 2.0108 40.0228 2.26972V16.2917C40.0224 16.5968 39.9604 16.8985 39.8405 17.1786C39.7213 17.4591 39.5475 17.7127 39.3294 17.9242C39.1135 18.1281 38.8603 18.2876 38.584 18.3939C38.3193 18.5026 38.0365 18.5595 37.7507 18.5614H23.7923C23.2178 18.5523 22.6669 18.3288 22.2461 17.934C22.0263 17.7213 21.8504 17.4668 21.7285 17.1851C21.606 16.9024 21.5429 16.5971 21.543 16.2884V2.26972C21.5438 1.998 21.5934 1.72868 21.6895 1.47484C21.7819 1.21966 21.9198 0.983672 22.0964 0.778507L22.1875 0.686537C22.3822 0.487708 22.6104 0.325338 22.8613 0.206984C23.1537 0.072544 23.471 0.00202406 23.7923 5.36203e-05ZM37.7604 2.26315H23.7923V16.3016C24.9902 16.3016 37.7539 16.3016 37.7669 16.3016C37.7669 15.1158 37.7669 2.273 37.7669 2.26972L37.7604 2.26315ZM16.2175 2.26315H2.24935V16.295C3.44401 16.295 16.2109 16.295 16.2207 16.295C16.2207 15.1093 16.2207 2.26644 16.2207 2.26315H16.2175Z" fill="white"/>
</svg>
