<svg width="22" height="25" viewBox="0 0 22 25" fill="none" xmlns="http://www.w3.org/2000/svg">
<path fill-rule="evenodd" clip-rule="evenodd" d="M16.3769 12.4587H19.5094V11.8505C19.3303 11.1851 19.0451 10.734 18.6757 10.4597C18.3062 10.1858 17.8273 10.0686 17.2651 10.0725L4.41752 10.0755C4.10115 10.0755 3.84513 9.8182 3.84513 9.50138C3.84513 9.18406 4.10115 8.92728 4.41752 8.92728L17.25 8.92875C18.0575 8.92093 18.7701 9.10547 19.3551 9.54043C19.4077 9.57948 19.4593 9.62049 19.5094 9.66345V9.31831C19.5094 8.78229 19.2889 8.29216 18.9341 7.93628C18.5822 7.5804 18.0945 7.36024 17.5572 7.36024H17.1439L17.0909 7.35779L16.8889 8.1174H15.5008L16.3243 5.01894C15.6322 4.83343 15.2194 4.11581 15.4049 3.42163L10.8243 2.19094C10.6389 2.88463 9.92385 3.29958 9.2327 3.11359L7.88788 8.1174H6.45642L8.63451 0L18.3544 2.61223L17.3961 6.21156H17.5572C18.4065 6.21156 19.1809 6.56256 19.7426 7.12542C20.3052 7.68731 20.6542 8.46547 20.6542 9.31831V12.491C20.9847 12.5569 21.2801 12.7209 21.5094 12.9508C21.8116 13.254 22 13.6738 22 14.1361V17.9122C22 18.394 21.8034 18.8324 21.488 19.1482C21.2626 19.3743 20.9754 19.5397 20.6542 19.6154V21.8932C20.6542 22.7456 20.3047 23.5233 19.7431 24.0866L19.707 24.1198C19.1473 24.6632 18.3875 25 17.5572 25H3.09704C2.24673 25 1.47137 24.65 0.90969 24.0871C0.348982 23.5247 0 22.748 0 21.8932V9.31831C0 8.46303 0.348496 7.68634 0.909204 7.12396C1.46991 6.56158 2.24478 6.21156 3.09704 6.21156H4.90376L4.91155 6.21204L6.34982 0.854309L7.7219 1.22288L5.83681 8.1174H4.4L4.60345 7.36024H3.09704C2.56115 7.36024 2.07296 7.58089 1.71863 7.9358C1.36478 8.2907 1.14478 8.78083 1.14478 9.31831V21.8932C1.14478 22.4307 1.36527 22.9199 1.7196 23.2748C2.07394 23.6307 2.56261 23.8518 3.09704 23.8518H17.5572C18.0794 23.8518 18.5569 23.6419 18.9073 23.3026L18.9336 23.2743C19.2885 22.9189 19.5094 22.4288 19.5094 21.8932V19.6618H16.3769C15.4092 19.6618 14.5292 19.2644 13.8936 18.6269L13.8337 18.561C13.2321 17.9263 12.8612 17.071 12.8612 16.1357V15.9844C12.8612 15.0183 13.2569 14.1376 13.8936 13.4976L13.8999 13.4912C14.5375 12.8542 15.4146 12.4587 16.3769 12.4587ZM11.7184 7.91578C12.5551 8.14034 13.4166 7.6424 13.6405 6.80274C13.8649 5.96356 13.3674 5.09949 12.5308 4.87493C11.6936 4.65037 10.8321 5.14831 10.6082 5.98797C10.3843 6.82715 10.8817 7.69073 11.7184 7.91578ZM17.6341 15.0881L17.637 15.0905C18.169 15.6255 18.1675 16.496 17.636 17.0305L17.6336 17.0335C17.1001 17.567 16.2323 17.5656 15.6989 17.0325L15.6964 17.03C15.1644 16.495 15.1659 15.6246 15.6974 15.0895L15.6998 15.0871C16.2333 14.5535 17.1011 14.5545 17.6341 15.0881Z" fill="green"/>
</svg>
