<svg width="44" height="29" viewBox="0 0 44 29" fill="none" xmlns="http://www.w3.org/2000/svg">
<path d="M6.9807 3.34779H18.2454V0.972183C18.2454 0.435024 18.6407 0 19.1288 0H25.7297C26.2178 0 26.6131 0.435024 26.6131 0.972183V3.34779H37.021C37.1998 2.78809 37.4906 2.27972 37.8718 1.8602L37.8787 1.85263C38.5292 1.13957 39.4247 0.697929 40.4104 0.697929C41.3961 0.697929 42.2924 1.14052 42.9447 1.85547L42.9507 1.86304C43.5995 2.57988 44 3.56436 44 4.64908C44 5.73664 43.5978 6.72301 42.9481 7.43796L42.9464 7.43985L42.9481 7.44269C42.2984 8.15669 41.4013 8.59928 40.4104 8.59928C39.4187 8.59928 38.5215 8.15669 37.8718 7.44269L37.8082 7.36609C37.4582 6.96037 37.19 6.47795 37.021 5.95037H32.0229C33.6602 6.99182 35.1504 8.29109 36.4461 9.80695C39.0569 12.8625 40.8822 16.807 41.5491 21.3389H42.8923C43.4784 21.3389 43.9527 21.8618 43.9527 22.5068V27.833C43.9527 28.477 43.4784 29 42.8923 29H38.1081C37.522 29 37.0468 28.477 37.0468 27.833V22.5068C37.0468 21.8618 37.522 21.3389 38.1081 21.3389H39.1591C38.5232 17.5154 36.9471 14.1846 34.7273 11.5868C32.5497 9.03809 29.7516 7.19302 26.6131 6.27853V8.32597C26.6131 8.86219 26.2178 9.29816 25.7297 9.29816H19.1288C18.6407 9.29816 18.2454 8.86219 18.2454 8.32597V6.2842C15.0348 7.23463 12.1842 9.1563 9.98938 11.8137C7.87102 14.3756 6.36281 17.6222 5.72602 21.3389H6.75125C7.33648 21.3389 7.81172 21.8618 7.81172 22.5068V27.833C7.81172 28.477 7.33648 29 6.75125 29H1.96711C1.38102 29 0.905781 28.477 0.905781 27.833V22.5068C0.905781 21.8618 1.38102 21.3389 1.96711 21.3389H3.33266C4.00211 16.9281 5.75008 13.08 8.24227 10.0642C9.58604 8.43842 11.1499 7.0508 12.8786 5.95037H6.97898C6.80017 6.51007 6.50942 7.01844 6.1282 7.43796L6.12219 7.44458C5.47078 8.15859 4.57531 8.59928 3.59047 8.59928C2.60391 8.59928 1.70758 8.15764 1.05531 7.44174L1.0493 7.43512C0.400469 6.71828 0 5.73286 0 4.64908C0 3.56341 0.401328 2.57704 1.05187 1.8602L1.05789 1.85263C1.7093 1.13957 2.60477 0.697929 3.59047 0.697929C4.57703 0.697929 5.47508 1.14146 6.12648 1.85736L6.1282 1.85547C6.50633 2.27158 6.80023 2.78037 6.9807 3.34779Z" fill="purple"/>
</svg>
