<svg width="38" height="39" viewBox="0 0 38 39" fill="none" xmlns="http://www.w3.org/2000/svg">
<path fill-rule="evenodd" clip-rule="evenodd" d="M22.9791 35.5821H1.94282C0.277847 35.4583 -0.124495 34.2966 0.0292455 32.9541C0.941873 25.0449 10.0845 27.3333 13.7579 24.1245C15.5897 29.355 23.2473 29.5486 24.9646 24.1245C25.3604 24.4705 25.9099 24.7625 26.5543 25.0196C25.9623 25.3687 25.4029 25.7908 24.8926 26.2859C22.302 28.7964 21.6641 32.4876 22.9791 35.5821ZM35.9816 27.5999C38.6704 30.2088 38.6704 34.4363 35.9816 37.0452C33.2927 39.6541 28.9357 39.6541 26.2469 37.0452C23.558 34.4363 23.558 30.2088 26.2469 27.5999C28.9357 24.991 33.296 24.991 35.9816 27.5999ZM30.4109 28.6155H31.8175C32.0105 28.6155 32.1675 28.7678 32.1675 28.9551V31.2974H34.5815C34.7745 31.2974 34.9315 31.4497 34.9315 31.637V33.0017C34.9315 33.189 34.7745 33.3413 34.5815 33.3413H32.1675V35.6836C32.1675 35.8709 32.0105 36.0232 31.8175 36.0232H30.4109C30.2179 36.0232 30.0609 35.8709 30.0609 35.6836V33.3413H27.6469C27.4539 33.3413 27.2969 33.189 27.2969 33.0017V31.637C27.2969 31.4497 27.4539 31.2974 27.6469 31.2974H30.0609V28.9551C30.0609 28.771 30.2179 28.6155 30.4109 28.6155ZM13.7089 18.8782C14.4056 19.9478 15.1318 21.0427 16.0346 21.8489C16.9047 22.6201 17.9612 23.1438 19.3547 23.147C20.8692 23.1502 21.9716 22.6074 22.8711 21.7918C23.8066 20.9444 24.5394 19.7827 25.2688 18.6211L27.2216 15.5012C27.5847 14.6919 27.7188 14.1555 27.6338 13.8382C27.5815 13.6509 27.3688 13.5589 27.0057 13.543C26.9305 13.5398 26.8487 13.5398 26.7702 13.5398C26.6852 13.543 26.5936 13.5493 26.4955 13.5557C26.4399 13.5589 26.3941 13.5557 26.345 13.5462C26.1749 13.5557 25.9917 13.543 25.8118 13.5176L26.4791 10.6453C21.5169 11.4038 17.8075 7.8301 12.5672 9.93117L12.9467 13.3145C12.7406 13.3272 12.5378 13.3176 12.3514 13.2923C9.34198 13.3875 13.1168 17.961 13.7089 18.8782ZM27.6796 12.6829C28.1604 12.8257 28.4679 13.1209 28.5955 13.6001C28.7361 14.1301 28.5824 14.876 28.1179 15.898C28.1081 15.917 28.1016 15.9361 28.0885 15.9519L26.116 19.1067C25.3539 20.3223 24.5852 21.5442 23.5515 22.4773C22.4851 23.4485 21.1669 24.0928 19.3678 24.0864C17.6897 24.0833 16.4206 23.4612 15.3836 22.5376C14.1308 21.4204 8.35411 14.4063 10.935 12.7146C11.0626 12.6353 11.2032 12.5623 11.3537 12.5083C11.2392 11.0579 11.1999 9.22976 11.2719 7.69997C11.3112 7.33815 11.3831 6.97634 11.4845 6.61135C11.9261 5.07521 13.0383 3.83742 14.4121 2.99001C15.171 2.52028 16.0019 2.16799 16.8654 1.93313C17.415 1.78078 16.3977 0.0732622 16.9636 0.022481C19.7113 -0.253642 24.1665 2.18386 26.0866 4.20241C27.045 5.21169 27.6534 6.55104 27.7843 8.32204L27.6796 12.6829Z" fill="#049294"/>
</svg>
