<svg width="9" height="8" viewBox="0 0 9 8" fill="none" xmlns="http://www.w3.org/2000/svg">
<g clip-path="url(#clip0_1060_2342)">
<path fill-rule="evenodd" clip-rule="evenodd" d="M8.66161e-05 4.75215C-0.00430791 4.3423 0.15829 3.97886 0.539882 3.86005L0.549403 3.84459C0.560561 3.82355 0.575429 3.80452 0.593348 3.78835C0.616443 3.77208 0.642537 3.76016 0.670253 3.7532L0.691493 3.74547C2.54159 3.0931 3.37582 2.11383 3.85556 1.44881C3.85556 2.10188 4.02621 2.9532 4.3265 3.7771C4.63485 4.62069 5.08016 5.44389 5.62362 6.00979C5.05746 5.85513 4.34701 5.6583 3.19125 5.80944C3.14285 5.92262 3.1151 6.04294 3.10922 6.16515C3.10541 6.20326 3.10995 6.24172 3.12257 6.27804C3.13518 6.31437 3.15559 6.34775 3.18246 6.37605L3.20004 6.39151C3.27328 6.45548 3.30917 6.48712 3.32528 6.54406C3.33606 6.61946 3.33283 6.6961 3.31576 6.77042L3.30917 6.81752C3.28207 7.0235 3.38607 7.06568 3.48934 7.10786C3.59262 7.15004 3.67318 7.18378 3.71493 7.29696C3.71787 7.30612 3.71787 7.31592 3.71493 7.32508C3.67245 7.53598 3.53183 7.65127 3.39047 7.76726C3.35604 7.79608 3.32089 7.8249 3.29086 7.85232H3.28646C2.99935 8.07306 2.80526 8.01401 2.65805 7.83686C2.54232 7.69626 2.46176 7.48536 2.38705 7.28782L2.35482 7.20206C2.23384 6.85477 2.13599 6.50046 2.06185 6.14125L2.03695 6.0358C1.97323 6.05267 1.90658 6.07165 1.837 6.09134C1.74911 6.11594 1.66122 6.14266 1.57406 6.16937L1.54623 6.17921C1.53177 6.18834 1.51483 6.19321 1.49752 6.19321C1.48021 6.19321 1.46328 6.18834 1.44882 6.17921C0.986659 6.32684 0.600673 6.11594 0.34286 5.76445C0.234021 5.6161 0.149771 5.45248 0.0931042 5.27939C0.0350642 5.10903 0.00371609 4.93134 8.66161e-05 4.75215ZM6.43148 1.13598C6.40833 1.15292 6.3819 1.16528 6.35373 1.17234C6.32556 1.1794 6.29621 1.18101 6.26738 1.17709C6.23856 1.17316 6.21083 1.16378 6.18582 1.14948C6.1608 1.13518 6.139 1.11625 6.12167 1.0938L6.11654 1.08747C6.08297 1.0422 6.06902 0.986196 6.07762 0.93125C6.08623 0.876303 6.11673 0.826709 6.16268 0.79292C6.51864 0.540547 6.87313 0.286065 7.22909 0.0393167C7.27604 0.00669486 7.33424 -0.00739579 7.39169 -5.05673e-05C7.45032 0.00858027 7.503 0.0391685 7.53817 0.0850109V0.0885259C7.57196 0.133893 7.58566 0.190259 7.57626 0.245292C7.57204 0.273227 7.56202 0.300066 7.5468 0.324216C7.53158 0.348367 7.51146 0.369339 7.48764 0.38589L6.43148 1.13598ZM7.58798 5.19222C7.559 5.19164 7.53042 5.18557 7.5039 5.17435C7.47738 5.16313 7.45343 5.14698 7.43344 5.12684C7.41325 5.10693 7.39736 5.0834 7.38667 5.05758C7.37599 5.03176 7.37072 5.00417 7.37118 4.9764V4.97148C7.37117 4.94336 7.37702 4.91553 7.38838 4.88962C7.39974 4.86371 7.41639 4.84023 7.43734 4.82058C7.45829 4.80094 7.48312 4.78551 7.51037 4.7752C7.53763 4.7649 7.56675 4.75993 7.59603 4.76058C7.98934 4.76058 8.38925 4.77464 8.78256 4.78167C8.84168 4.78296 8.89789 4.80656 8.93902 4.84735C8.98015 4.88814 9.00288 4.94284 9.00228 4.9996C9.00113 5.05661 8.97666 5.11089 8.93417 5.15074C8.91332 5.17041 8.88858 5.18589 8.86142 5.19628C8.83425 5.20666 8.8052 5.21173 8.77597 5.2112L7.59017 5.1894L7.58798 5.19222ZM7.6224 4.08782C7.59335 4.09022 7.5641 4.08705 7.53635 4.07849C7.50859 4.06993 7.48288 4.05616 7.46073 4.03797C7.43858 4.01978 7.42041 3.99754 7.4073 3.97255C7.39419 3.94755 7.38639 3.92031 7.38436 3.89239V3.88747C7.38107 3.8318 7.40035 3.77706 7.43817 3.73473C7.47599 3.6924 7.52942 3.66577 7.58724 3.66041C7.95346 3.63229 8.32626 3.60206 8.6932 3.57956C8.75184 3.57607 8.80956 3.59481 8.85394 3.63175C8.89833 3.6687 8.92582 3.72089 8.93051 3.7771C8.93283 3.80511 8.92929 3.83328 8.92011 3.85996C8.91093 3.88664 8.89629 3.91129 8.87704 3.93246C8.83841 3.97553 8.7837 4.00229 8.7247 4.00698C8.36947 4.04072 7.97909 4.06884 7.6224 4.08712V4.08782ZM7.4642 3.06216C7.43587 3.06988 7.40624 3.07217 7.37699 3.06889C7.34775 3.06561 7.31946 3.05684 7.29375 3.04306C7.26804 3.02929 7.24541 3.01078 7.22715 2.98861C7.20889 2.96644 7.19536 2.94103 7.18734 2.91383C7.17931 2.88697 7.17693 2.85884 7.18032 2.83108C7.18372 2.80333 7.19282 2.77649 7.20712 2.75215C7.2361 2.70244 7.28421 2.66559 7.34115 2.64951C7.72274 2.5532 8.10287 2.4351 8.48446 2.33668C8.51245 2.32897 8.54176 2.32668 8.57067 2.32994C8.5996 2.3332 8.62755 2.34194 8.65292 2.35566C8.70409 2.38301 8.74218 2.42839 8.75912 2.4822C8.77519 2.53701 8.76804 2.59569 8.73923 2.64546C8.71042 2.69524 8.66228 2.73207 8.60531 2.74793L7.46347 3.06076L7.4642 3.06216ZM7.00277 2.05549C6.97651 2.06804 6.94794 2.07551 6.91867 2.07746C6.88941 2.07942 6.86003 2.07582 6.83221 2.06688C6.80439 2.05794 6.77868 2.04382 6.75655 2.02534C6.73442 2.00686 6.71629 1.98438 6.70321 1.95918C6.68983 1.93406 6.68183 1.90662 6.67969 1.87849C6.67755 1.85035 6.68132 1.82209 6.69076 1.79538C6.70968 1.74141 6.74992 1.69673 6.80282 1.67095L7.90145 1.14441C7.92761 1.13137 7.95624 1.12352 7.98563 1.12132C8.01501 1.11912 8.04456 1.12261 8.07251 1.1316C8.10046 1.14059 8.12624 1.15488 8.14832 1.17362C8.17039 1.19237 8.18832 1.21519 8.20101 1.24072C8.21428 1.26589 8.22215 1.29335 8.22416 1.32148C8.22617 1.34962 8.22229 1.37785 8.21273 1.40452C8.19379 1.4583 8.15353 1.50276 8.10067 1.52824L7.00204 2.05549H7.00277ZM4.30307 0.843535C4.31259 0.83299 4.32284 0.823148 4.33236 0.814009C4.36242 0.781013 4.39934 0.75443 4.44076 0.735978C4.48804 0.720773 4.53885 0.718822 4.58724 0.730354C4.75204 0.755661 4.92855 0.870951 5.108 1.0474C5.54745 1.48255 6.01034 2.31278 6.33993 3.18519C6.66952 4.05759 6.86727 4.96796 6.7684 5.55918C6.73104 5.77921 6.65341 5.95707 6.52597 6.07447L6.51937 6.07939C6.46579 6.11635 6.40375 6.14046 6.33847 6.14969C6.33269 6.14462 6.32657 6.13992 6.32016 6.13563C5.88143 5.83475 5.49325 5.33563 5.16659 4.74863C5.25009 4.7641 5.35702 4.70434 5.45956 4.60241C5.97225 4.0836 5.7203 3.17675 5.0809 2.96656C4.82016 2.8822 4.56088 2.8822 4.45834 2.93071L4.44735 2.93633C4.21298 2.06814 4.14633 1.26533 4.30307 0.843535Z" fill="#EB5757"/>
</g>
<defs>
<clipPath id="clip0_1060_2342">
<rect width="9" height="8" fill="white"/>
</clipPath>
</defs>
</svg>
