<svg width="15" height="15" viewBox="0 0 15 15" fill="none" xmlns="http://www.w3.org/2000/svg">
<g clip-path="url(#clip0_282_834)">
<path d="M7.49957 0C7.99766 0 8.48634 0.049561 8.96037 0.143312C9.44466 0.239382 9.91479 0.383182 10.365 0.569463C10.8228 0.759039 11.2578 0.992562 11.6643 1.26405C12.078 1.5403 12.4595 1.85329 12.8031 2.1968C13.1466 2.54043 13.4602 2.92202 13.7364 3.33584C14.008 3.74173 14.2412 4.17667 14.4305 4.63432C14.6167 5.08451 14.7607 5.55461 14.8566 6.03887C14.9507 6.51275 15.0001 7.0014 15.0001 7.49994C15.0001 7.99848 14.9508 8.48689 14.8566 8.96089C14.7607 9.44515 14.6167 9.91524 14.4305 10.3654C14.2409 10.8232 14.0075 11.2581 13.7357 11.6646C13.4596 12.0781 13.1468 12.4596 12.8032 12.8031C12.4594 13.1466 12.0779 13.4599 11.6639 13.7364C11.2579 14.0078 10.8229 14.2412 10.3651 14.4305C9.91491 14.6167 9.44478 14.7605 8.96049 14.8566C8.48646 14.9506 7.99766 14.9999 7.49969 14.9999C7.00149 14.9999 6.51268 14.9506 6.03853 14.8566C5.55448 14.7605 5.08411 14.6167 4.63388 14.4305C4.17609 14.241 3.74112 14.0073 3.33459 13.7358C2.92087 13.4597 2.53937 13.1467 2.19596 12.8031L2.17338 12.7788C1.8368 12.4381 1.53173 12.0642 1.26376 11.6627C0.992504 11.2564 0.759089 10.8217 0.569622 10.3642C0.383451 9.91402 0.239397 9.44392 0.143443 8.95967C0.0495642 8.48591 0 7.99738 0 7.49884C0 7.00042 0.0495642 6.51177 0.143565 6.03789C0.239519 5.55363 0.383451 5.08354 0.569744 4.63334C0.758112 4.17679 0.991894 3.7421 1.26462 3.33401C1.53869 2.92434 1.85182 2.5436 2.19791 2.19777C2.54084 1.85329 2.92246 1.54005 3.33643 1.26356C3.74173 0.992684 4.17645 0.759284 4.63352 0.570195C5.08179 0.383792 5.55229 0.239748 6.03853 0.143434C6.51244 0.0495609 7.00112 0 7.49957 0ZM6.67847 2.63271L10.6453 11.299L10.7857 11.1782C10.8434 11.1262 10.9106 11.0619 10.9866 10.9858C11.2191 10.7534 11.4267 10.5018 11.6047 10.2357C11.7826 9.96981 11.9354 9.68514 12.0585 9.38667C12.1791 9.09456 12.2734 8.78584 12.3367 8.46369C12.398 8.15351 12.4302 7.83026 12.4302 7.49774C12.4302 7.1651 12.398 6.84185 12.3367 6.53167C12.2732 6.20977 12.1791 5.9008 12.0585 5.60881C11.9347 5.30986 11.7816 5.02494 11.6035 4.75858C11.4256 4.49308 11.2187 4.24198 10.9866 4.0098L10.9661 3.98795C10.7418 3.76663 10.4971 3.56619 10.2362 3.39175C9.97009 3.21377 9.68589 3.06106 9.38741 2.93789C9.09552 2.81753 8.78653 2.72341 8.46437 2.65993C8.15392 2.59865 7.83065 2.56643 7.49823 2.56643C7.36114 2.56643 7.22843 2.57155 7.10184 2.58156C6.96206 2.59243 6.8329 2.60757 6.71534 2.62636L6.67847 2.63271ZM8.32043 12.3647L4.35371 3.69766L4.21381 3.81802C4.14813 3.87686 4.08038 3.94132 4.0114 4.01004C3.77982 4.24332 3.57204 4.49491 3.39405 4.76102C3.2163 5.02677 3.06346 5.31144 2.94028 5.60991C2.81966 5.9019 2.72554 6.21074 2.66206 6.53277C2.6009 6.84295 2.56855 7.1662 2.56855 7.49884C2.56855 7.83136 2.6009 8.15473 2.66206 8.46491C2.72554 8.78706 2.81966 9.09578 2.94028 9.38789C3.06419 9.6866 3.21728 9.97152 3.39551 10.2384C3.57302 10.5037 3.78018 10.755 4.01214 10.987C4.24457 11.2195 4.49618 11.4271 4.76231 11.6051C5.02832 11.7832 5.31289 11.9358 5.61137 12.0591C5.90326 12.1794 6.21225 12.2737 6.53429 12.337C6.84486 12.3983 7.16813 12.4305 7.50043 12.4305C7.63777 12.4305 7.77022 12.4255 7.89694 12.4155C8.03733 12.4045 8.1671 12.3893 8.28515 12.3705L8.32043 12.3647Z" fill="#FFB44E"/>
</g>
<defs>
<clipPath id="clip0_282_834">
<rect width="15" height="15" fill="white"/>
</clipPath>
</defs>
</svg>
