<svg width="41" height="41" viewBox="0 0 41 41" fill="none" xmlns="http://www.w3.org/2000/svg">
<path fill-rule="evenodd" clip-rule="evenodd" d="M4.70459 0H36.2921C38.8813 0 40.9967 2.11873 40.9967 4.70459V36.2921C40.9967 38.8779 38.8779 40.9967 36.2921 40.9967H4.70459C2.11873 40.9967 0 38.8813 0 36.2921V4.70459C0 2.1154 2.1154 0 4.70459 0ZM27.1431 9.46924L31.3973 13.7267C31.9578 14.2873 31.9578 15.2082 31.3973 15.7654L29.0417 18.121L22.7455 11.8249L25.1012 9.46924C25.6617 8.90869 26.5793 8.90869 27.1431 9.46924ZM17.4637 29.689C15.762 30.2161 14.057 30.74 12.3521 31.2705C8.34481 32.5084 8.36483 33.3325 9.45589 29.4788L11.1776 23.4062L11.1709 23.3995L21.5544 13.016L27.8505 19.3122L17.4737 29.6923L17.4637 29.689ZM12.2553 24.4772L16.3893 28.6112C15.2716 28.9549 14.1505 29.2986 13.0294 29.6489C10.4001 30.4564 10.4135 31.0002 11.1275 28.4678L12.2553 24.4772Z" fill="white"/>
</svg>
