<svg width="36" height="39" viewBox="0 0 36 39" fill="none" xmlns="http://www.w3.org/2000/svg">
<path fill-rule="evenodd" clip-rule="evenodd" d="M17.9384 0C24.6508 4.1944 30.7152 6.17813 35.9189 5.70981C36.8282 23.8315 30.0392 34.533 18.0071 39C6.38906 34.8193 -0.483348 24.5778 0.0265207 5.43414C6.13567 5.7494 12.1297 4.44798 17.9384 0ZM21.5113 16.77V15.4876C21.5113 14.4778 21.1127 13.5625 20.4699 12.9023C19.8349 12.2497 18.9604 11.8438 17.9994 11.8438C17.0391 11.8438 16.1646 12.2497 15.5296 12.9023C14.8869 13.5625 14.4882 14.4778 14.4882 15.4876V16.77H21.5113ZM12.9185 16.77V15.4876C12.9185 14.0674 13.4863 12.7736 14.4009 11.8331C15.3241 10.885 16.5972 10.2964 18.0002 10.2964C19.4031 10.2964 20.677 10.8843 21.5986 11.8331C22.514 12.7736 23.0818 14.0674 23.0818 15.4876V16.77H23.6435C24.0993 16.77 24.4724 17.1378 24.4724 17.5871V26.2241C24.4724 26.6742 24.0993 27.042 23.6435 27.042H12.3568C11.9003 27.042 11.5279 26.6742 11.5279 26.2241V17.5871C11.5271 17.1378 11.9003 16.77 12.3568 16.77H12.9185ZM17.3196 22.2864L16.4242 24.596H19.5753L18.7464 22.2544C19.2725 21.9879 19.6317 21.4472 19.6317 20.8243C19.6317 19.9348 18.9017 19.2152 17.9994 19.2152C17.0986 19.2152 16.3678 19.9348 16.3678 20.8243C16.3678 21.4723 16.7579 22.0313 17.3196 22.2864ZM17.9499 3.01863C23.5168 6.49645 28.8596 8.45201 33.1757 8.06287C33.9297 23.0913 27.9851 32.2766 18.0087 35.9806C8.37214 32.5142 2.35878 23.7112 2.78136 7.83518C8.37291 8.12379 13.4971 6.42867 17.9499 3.01863Z" fill="white"/>
</svg>
