<svg width="38" height="43" viewBox="0 0 38 43" fill="none" xmlns="http://www.w3.org/2000/svg">
<path fill-rule="evenodd" clip-rule="evenodd" d="M18.9352 0C26.0197 4.4951 32.4216 6.62238 37.9147 6.11886C38.3471 14.881 37.1256 22.0244 34.4896 27.6664C33.8132 27.1116 33.0636 26.6529 32.262 26.3031C34.3915 21.5783 35.371 15.6375 35.0127 8.3868C30.3619 8.81209 24.9429 7.01189 18.9443 3.20591C13.7548 7.24159 8.39809 8.42342 2.93831 8.13712C2.69633 17.367 4.31697 24.3156 7.44683 29.3709C9.76095 27.4342 13.7024 27.7271 15.5683 25.1587C15.7022 24.9598 15.7646 24.8533 15.7637 24.7651C15.7621 24.7201 13.7381 22.2358 13.5569 21.9462C13.0796 21.1871 12.1865 20.1568 12.1865 19.2671C12.1865 18.7652 12.5823 18.1102 13.1486 17.9646C13.1045 17.2122 13.0746 16.449 13.0746 15.6933C13.0746 15.2464 13.0837 14.7945 13.0995 14.3517C13.1245 14.0712 13.176 13.9472 13.25 13.6767C13.5991 12.5403 14.3586 11.5748 15.3804 10.9685C15.7421 10.7396 16.1354 10.5624 16.5379 10.4167C17.2688 10.1496 16.9146 8.99352 17.717 8.97605C19.5912 8.92778 22.6753 10.5682 23.8769 11.8707C24.6427 12.7188 25.0793 13.6609 25.1059 14.8028L25.0294 18.0894C25.362 18.171 25.7354 18.4323 25.8168 18.7652C26.0738 19.8031 24.9978 21.0947 24.498 21.9187C24.0374 22.6802 22.2754 24.7584 22.2737 24.7751C22.2654 24.8649 22.3111 24.9765 22.4317 25.1587C22.8857 25.7821 23.4611 26.2365 24.1056 26.5961C23.2521 27.0437 22.4714 27.6181 21.7898 28.2997C20.0752 30.0159 19.0141 32.3887 19.0141 35.0087C19.0141 37.2466 19.7925 39.3057 21.0921 40.9294C20.4153 41.2407 19.7209 41.532 19.0083 41.8C6.74419 37.319 -0.510022 26.3422 0.0279741 5.82424C6.47644 6.16297 12.8043 4.76725 18.9352 0Z" fill="white"/>
<path fill-rule="evenodd" clip-rule="evenodd" d="M28.5003 27.2344C32.6971 27.2344 36.0999 30.637 36.0999 34.8344C36.0999 39.0317 32.6971 42.4344 28.5003 42.4344C24.3027 42.4344 20.8999 39.0317 20.8999 34.8344C20.8999 30.637 24.3027 27.2344 28.5003 27.2344ZM26.6386 35.1074C26.8698 35.3035 27.0879 35.5146 27.2915 35.7393C27.9301 34.7117 28.6114 33.7675 29.331 32.8993C31.3647 30.4433 30.443 30.9167 33.2639 30.9167L32.8716 31.3524C31.6677 32.6906 31.2611 33.3868 30.2735 34.8135C29.2956 36.2283 28.4086 37.7039 27.6179 39.2313L27.3741 39.7029L27.1487 39.2221C26.7355 38.333 26.2387 37.5174 25.6468 36.7878C25.0558 36.059 24.5382 35.5832 23.7359 35.0322C24.104 33.8251 25.8539 34.4429 26.6386 35.1074Z" fill="white"/>
</svg>
