<svg width="21" height="21" viewBox="0 0 21 21" fill="none" xmlns="http://www.w3.org/2000/svg">
<path fill-rule="evenodd" clip-rule="evenodd" d="M7.49219 13.4483L9.15674 18.3516L9.99414 15.4411L9.58398 14.9908C9.39941 14.7203 9.3584 14.4841 9.46094 14.2803C9.68311 13.8403 10.1428 13.9225 10.5718 13.9225C11.0212 13.9225 11.5784 13.8369 11.7185 14.4019C11.7664 14.5902 11.7065 14.7888 11.575 14.9908L11.1648 15.4411L12.0022 18.3516L13.5095 13.4483C14.5964 14.4276 17.8145 14.6245 19.0125 15.2939C19.3918 15.5062 19.7336 15.775 20.0088 16.1379C20.4258 16.6909 20.6821 17.4117 20.7522 18.3276L21.0017 19.925C20.9402 20.5721 20.5745 20.9454 19.8516 21.0019H10.5786H1.15015C0.427246 20.9471 0.0615234 20.5738 0 19.925L0.249512 18.3276C0.31958 17.4117 0.575928 16.6909 0.99292 16.1379C1.26807 15.7733 1.60986 15.5045 1.98926 15.2939C3.18726 14.6245 6.40527 14.4276 7.49219 13.4483ZM6.73853 6.4306C6.53174 6.43916 6.37622 6.48196 6.27026 6.55387C6.20874 6.59496 6.16431 6.64803 6.13525 6.70966C6.10278 6.77814 6.08911 6.86204 6.09082 6.95962C6.09937 7.24382 6.24805 7.61363 6.53345 8.03993L6.53687 8.04677L7.46655 9.52941C7.83911 10.1235 8.23047 10.7296 8.71582 11.1747C9.18237 11.6027 9.74976 11.892 10.5 11.8937C11.3118 11.8955 11.9065 11.5941 12.3867 11.1422C12.8875 10.6713 13.2839 10.0276 13.6736 9.38388L14.7212 7.65471C14.916 7.20787 14.9878 6.90997 14.9434 6.73363C14.916 6.6292 14.8015 6.57784 14.6067 6.56927C14.5657 6.56756 14.5229 6.56756 14.4785 6.56756C14.4324 6.56928 14.3828 6.5727 14.3315 6.57612C14.3042 6.57784 14.2769 6.57612 14.2512 6.57099C14.1572 6.57612 14.0615 6.56928 13.9641 6.55558L14.323 4.96508C12.4072 4.94112 11.0964 4.60727 9.54639 3.61428C9.03711 3.28899 8.8833 2.91576 8.37402 2.95171C7.9895 3.02533 7.6665 3.19825 7.40845 3.4756C7.16235 3.74097 6.97607 4.10392 6.85474 4.56789L7.05811 6.44258C6.94531 6.44943 6.83765 6.44601 6.73853 6.4306ZM14.9656 6.09675C15.2236 6.1755 15.3894 6.33986 15.4561 6.60523C15.5312 6.8997 15.4492 7.3123 15.2014 7.87728C15.1963 7.88755 15.1912 7.89783 15.186 7.9081L14.1265 9.65781C13.718 10.3324 13.3027 11.0069 12.749 11.5274C12.1765 12.065 11.469 12.4228 10.5034 12.4211C9.60107 12.4193 8.92261 12.0735 8.36548 11.5633C7.82715 11.0703 7.41528 10.4334 7.02393 9.81018L6.09424 8.32926C5.75415 7.82078 5.57812 7.35682 5.56616 6.97503C5.56104 6.79527 5.5918 6.63262 5.65674 6.49052C5.72681 6.33986 5.83276 6.21488 5.97632 6.11901C6.04297 6.07449 6.11816 6.03512 6.2019 6.0043C6.14209 5.20135 6.11816 4.18781 6.15747 3.34035C6.17798 3.14004 6.21558 2.93802 6.27197 2.736C6.50952 1.88511 7.10596 1.20029 7.84424 0.729475C8.104 0.563406 8.3894 0.426442 8.69019 0.316871C10.4761 -0.333708 12.8447 0.0206861 14.1128 1.39375C14.6289 1.95359 14.9536 2.69662 15.0237 3.67762L14.9656 6.09675Z" fill="white"/>
</svg>
